<?xml version="1.0" encoding="UTF-8" standalone="no"?>
<!-- Created with Inkscape (http://www.inkscape.org/) -->

<svg
   width="244.23079mm"
   height="103.2563mm"
   viewBox="0 0 244.23079 103.2563"
   version="1.1"
   id="svg1"
   xml:space="preserve"
   xmlns="http://www.w3.org/2000/svg"
   xmlns:svg="http://www.w3.org/2000/svg"><defs
     id="defs1" /><g
     id="layer1"
     transform="translate(-243.53878,47720.02)"><g
       id="g1"
       transform="matrix(0.7498642,0,0,0.7498642,243.53878,-47720.02)"><path
         fill="#6b2c90"
         d="M 0.1,0 H 325.6 V 101.1 H 0.1 Z"
         id="path1" /><path
         d="m 215.9,34.4 c 0,-2.3 2,-3.7 5,-3.7 3.1,0 5.9,2 7.2,4.9 h 0.7 l -0.6,-4.4 c -1.5,-0.7 -4.8,-1.7 -7.7,-1.7 -4.5,0 -7.8,2.9 -7.8,6.3 0,7.1 14.2,8.7 14.2,14.6 0,3.2 -3.2,4.6 -6.1,4.6 -3.5,0 -6.7,-2.1 -7.6,-6.1 h -0.8 l 0.9,6.1 c 2.3,0.6 5.4,1.4 7.9,1.4 5.2,0 9,-3.4 9,-7.3 C 230,41.5 215.9,40.2 215.9,34.4 M 230.7,30 h 20.9 l 0.6,5.6 h -0.7 c -0.6,-3.6 -1.4,-4 -3,-4 h -5.6 v 20.2 c 0,2.2 0.7,3 3.2,3 h 0.9 v 0.8 h -11.7 v -0.8 h 0.9 c 2.5,0 3.2,-0.8 3.2,-3 V 31.6 h -5.6 c -1.6,0 -2.3,0.4 -2.9,4 h -0.7 z M 209,31 c -0.6,-4.1 -1.9,-4.4 -3.6,-4.4 h -11 v 12 h 8.6 c 1.8,0 2.6,-0.2 2.9,-3.1 h 0.9 v 8.3 h -0.9 c -0.4,-3.5 -1.3,-3.3 -3.4,-3.3 h -8.1 V 51 c 0,2.3 1,2.7 2.9,2.7 h 7.4 c 3.4,0 4.5,-0.7 5.7,-4.9 h 0.9 l -0.8,6.7 H 186.1 V 54.6 C 190,54.5 190.3,54 190.3,51 V 29.5 c 0,-3 -0.3,-3.6 -4.2,-3.6 V 25 h 23.4 l 0.4,6.1 H 209 Z m 24,49.5 h -0.7 c -0.5,2.4 -1.2,3 -3.2,3 h -9.2 c 4.9,-4.3 12.4,-9.9 12.4,-15.8 0,-3.9 -3,-6.9 -7.1,-6.9 -4.2,0 -7.4,3 -7.9,7.5 h 0.6 c 0.9,-3.2 3.4,-5.3 6.1,-5.3 2.9,0 5.1,2.3 5.1,5.2 0,7 -11.4,15.6 -12.4,16.6 v 1.1 h 15.5 l 0.3,-2.4 z m -46.6,5.4 V 85 c 3.7,0 3.9,-0.6 3.9,-2.6 V 64.2 c -1.3,1.1 -3.6,2.5 -5.1,3.2 l -0.3,-0.6 c 2.4,-1.5 5.8,-4.5 6.8,-5.8 h 1.4 v 20.8 c 0,2.5 0.5,3 4.2,3.1 v 0.9 h -10.9 z m 47,-7 V 78 L 245.8,61.1 H 247 V 77 h 3.2 v 2 H 247 v 7 h -2.8 V 79 H 233.4 M 244.2,64.9 235.4,77 h 8.8 z m -35.3,7.4 c 4.5,1.8 6.5,3.8 6.5,6.9 0,4.1 -3.7,7.2 -8.4,7.2 -4.6,0 -8.3,-2.9 -8.3,-6.4 0,-2.7 2.1,-5 6.3,-6.5 -4,-1.6 -6,-3.6 -6,-6.2 0,-3.4 3.6,-6.3 7.8,-6.3 4.2,0 7.7,2.5 7.7,5.6 0.1,2.4 -1.8,4.3 -5.6,5.7 m -3.1,1.5 c -2.9,1.4 -4.7,3.5 -4.7,6 0,3.3 2.6,5.5 5.9,5.5 3.2,0 5.9,-2.1 5.9,-5.1 0,-2.6 -2.1,-4.4 -7.1,-6.4 m 1,-12 c -3,0 -5.5,1.7 -5.5,4.1 0,2.2 1.2,3.6 6.8,5.8 2.4,-1.4 4.1,-3.1 4.1,-5.3 0,-2.8 -2.4,-4.6 -5.4,-4.6 z"
         fill="#ffd300"
         id="path2" /><path
         d="M 274.4,31 274,24.9 h -23.4 v 0.9 c 3.9,0.1 4.2,0.6 4.2,3.6 v 21.5 c 0,3 -0.3,3.5 -4.2,3.6 v 0.9 H 275 l 0.8,-6.7 h -0.9 c -1.2,4.2 -2.3,4.9 -5.7,4.9 h -7.4 c -1.8,0 -2.9,-0.4 -2.9,-2.7 V 40.6 h 8.1 c 2,0 3,-0.2 3.4,3.3 h 0.9 v -8.3 h -0.9 c -0.2,2.9 -1.1,3.1 -2.9,3.1 h -8.6 v -12 h 11 c 1.7,0 3,0.3 3.6,4.4 h 0.9 M 110.7,24.9 v 0.9 c 3.9,0.1 4.2,0.6 4.2,3.6 V 49 L 94.3,24.9 h -7.4 v 0.9 c 1.7,0 2.6,0.4 3.8,1.2 v 24.2 c 0,1.9 -0.7,3.2 -2.4,3.2 -1.3,0 -1.9,-1.5 -2.6,-3 L 74.2,24.9 H 70.7 L 60.1,49.7 c -1.9,4.1 -2.2,4.8 -3.3,4.8 -1.3,0 -1.7,-1.1 -1.9,-4.4 L 53.4,28.4 c 0,-1.9 0.6,-2.6 4.3,-2.6 V 24.9 H 49.4 L 38.6,49.8 27.7,24.9 H 19 v 0.9 c 3.7,0 4.3,0.6 4.3,2.6 l -1.3,21 c -0.2,4.5 -0.7,5.3 -4.3,5.3 v 0.9 H 28 v -0.9 c -2.2,-0.1 -4.1,-0.6 -3.9,-3.2 l 1.3,-22.2 h 0.1 L 37,55.6 h 1.1 L 49.3,29.3 h 0.1 l 1.4,22.1 c 0.2,2.6 -2.1,3.3 -4.4,3.3 v 0.9 h 19 v -0.9 h -0.2 c -2.7,0 -4,-0.5 -4,-1.8 0,-0.7 0.6,-2.2 1,-3.1 l 2.7,-6.5 H 78 l 3.2,7.7 c 0.2,0.5 0.5,1.2 0.5,2 0,1.4 -1,1.7 -3.8,1.7 h -0.7 v 0.9 h 20.1 v -0.9 c -4.2,0 -4.4,-0.7 -4.4,-4.3 V 29.2 l 22.9,26.7 h 1.3 V 28.4 c 0,-1.9 0.2,-2.6 3.9,-2.6 v -0.9 z m -44.8,16.4 5.6,-13.4 5.6,13.4 z m 119.5,13.3 v 0.9 h -12.2 v -0.9 c 3.7,-0.1 4.2,-0.6 4.2,-3.2 V 40.6 H 159.3 V 51 c 0,3 0.3,3.5 4.2,3.6 v 0.9 h -12.2 v -0.9 c 3.7,0 3.9,-0.6 3.9,-2.6 V 28.4 c 0,-1.9 -0.2,-2.6 -3.9,-2.6 v -0.9 h 12.2 v 0.9 c -3.9,0.1 -4.2,0.6 -4.2,3.6 v 9.2 h 18.1 V 29 c 0,-2.6 -0.5,-3.1 -4.2,-3.2 v -0.9 h 12.2 v 0.9 c -3.7,0 -3.9,0.6 -3.9,2.6 V 52 c 0,2 0.2,2.6 3.9,2.6 z M 137.7,24.2 c 5.2,0 9,1.7 11.3,2.7 l 0.4,6.1 h -0.9 c -1.6,-4.6 -5,-7.6 -10.4,-7.6 -8.2,0 -12.3,6.4 -12.3,14.6 0,8.9 5.4,14.9 12.9,14.9 2.2,0 7.9,-1.5 11.2,-7.5 h 0.9 l -2.4,5.8 c -2.9,1.4 -5.3,3 -11.1,3 -10,0 -16,-6.6 -16,-15.7 0,-9.4 6.1,-16.3 16.4,-16.3 z m 167.1,25.6 -3.9,-3.7 c -2.3,-2.3 -3.8,-3.4 -5.6,-4.8 4.1,-1.2 6.6,-4.3 6.6,-8 0,-5.1 -4.1,-8.8 -13.3,-8.8 -3.2,0 -4.2,0 -6.2,0.2 -2,0.1 -5.1,0.3 -6.2,0.3 v 0.9 h 1.1 c 2.9,0 3.7,0.9 3.7,4 v 20.7 c 0,3.3 -1,4.1 -4,4.1 h -0.8 v 0.9 h 14 v -0.9 h -1.1 c -2.8,0 -4,-0.7 -4,-3.7 v -8.2 c 0.8,0.1 1.4,0.1 2.5,0.1 1.3,0 2.1,0 3.3,-0.1 3.8,2.2 6.7,5.5 8.5,7.1 4.5,4.3 5.6,6.1 14.2,5.7 v -0.9 c -3.9,-0.3 -5.9,-1.9 -8.8,-4.9 z M 288,41.6 c -1.1,0 -1.9,0 -3.1,-0.1 V 25.7 c 0.9,-0.1 1.5,-0.1 2.5,-0.1 7.6,0 9.7,3.4 9.7,8 0.1,5.9 -3.6,8 -9.1,8 z m 16.8,8.2 -3.9,-3.7 c -2.3,-2.3 -3.8,-3.4 -5.6,-4.8 4.1,-1.2 6.6,-4.3 6.6,-8 0,-5.1 -4.1,-8.8 -13.3,-8.8 -3.2,0 -4.2,0 -6.2,0.2 -2,0.1 -5.1,0.3 -6.2,0.3 v 0.9 h 1.1 c 2.9,0 3.7,0.9 3.7,4 v 20.7 c 0,3.3 -1,4.1 -4,4.1 h -0.8 v 0.9 h 14 v -0.9 h -1.1 c -2.8,0 -4,-0.7 -4,-3.7 v -8.2 c 0.8,0.1 1.4,0.1 2.5,0.1 1.3,0 2.1,0 3.3,-0.1 3.8,2.2 6.7,5.5 8.5,7.1 4.5,4.3 5.6,6.1 14.2,5.7 v -0.9 c -3.9,-0.3 -5.9,-1.9 -8.8,-4.9 z M 288,41.6 c -1.1,0 -1.9,0 -3.1,-0.1 V 25.7 c 0.9,-0.1 1.5,-0.1 2.5,-0.1 7.6,0 9.7,3.4 9.7,8 0.1,5.9 -3.6,8 -9.1,8 z"
         fill="#ffffff"
         id="path3" /><path
         fill="#737373"
         d="m 7.5,114.3 v 16.5 h -2 V 114.3 H 0 v -1.8 h 13 v 1.8 H 7.5 m 16.6,16.5 v -8.7 c 0,-2.1 -0.6,-3.3 -2.5,-3.3 -2.4,0 -4.1,2.4 -4.1,5.6 v 6.5 h -2 v -19.7 h 2 v 6.6 c 0,0.9 -0.1,2 -0.2,2.7 h 0.1 c 0.8,-2 2.5,-3.2 4.8,-3.2 3.1,0 4,1.9 4,4.3 V 131 H 24.1 M 35,118.7 c -1.9,0 -3.2,1.4 -3.6,3.5 h 6.8 c 0.1,-2.1 -1.1,-3.5 -3.2,-3.5 m 5.3,5 h -9 c -0.1,4 1.5,5.7 4.5,5.7 1.4,0 2.9,-0.4 3.9,-0.9 l 0.2,1.7 c -1.2,0.5 -2.8,0.8 -4.4,0.8 -4.1,0 -6.2,-2.2 -6.2,-6.9 0,-4 2.2,-7 5.9,-7 3.7,0 5.2,2.6 5.2,5.5 0,0.3 0,0.7 -0.1,1.1 z M 55.7,131 C 50,131 49,127.8 49,124.7 v -12.2 h 2.1 v 12 c 0,2.6 0.9,4.8 4.8,4.8 3.4,0 5,-1.4 5,-5.3 v -11.5 h 2 v 11.3 c 0,4.8 -2.4,7.2 -7.2,7.2 m 19.8,-0.2 v -8.7 c 0,-2.1 -0.6,-3.3 -2.5,-3.3 -2.4,0 -4.1,2.4 -4.1,5.6 v 6.5 h -2 v -13.4 h 2 c 0,0.9 -0.1,2.2 -0.2,3 h 0.1 c 0.8,-1.9 2.5,-3.3 4.8,-3.3 3.1,0 4,1.9 4,4.3 v 9.4 h -2.1 m 5.9,-0.1 v -13.4 h 2 v 13.4 h -2 m 1,-15.9 c -0.8,0 -1.4,-0.6 -1.4,-1.4 0,-0.8 0.6,-1.4 1.4,-1.4 0.8,0 1.4,0.6 1.4,1.4 0.1,0.8 -0.6,1.4 -1.4,1.4 z m 10.4,15.9 h -2.1 l -5.1,-13.4 h 2.3 l 3.1,8.8 c 0.3,0.8 0.5,1.6 0.8,2.4 0.2,-0.7 0.5,-1.5 0.7,-2.3 l 3.2,-8.9 H 98 l -5.2,13.4 m 11.5,-12.1 c -1.9,0 -3.2,1.4 -3.6,3.5 h 6.8 c 0.1,-2.1 -1.1,-3.5 -3.2,-3.5 m 5.3,5 h -9 c -0.1,4 1.5,5.7 4.5,5.7 1.4,0 2.9,-0.4 3.9,-0.9 l 0.2,1.7 c -1.2,0.5 -2.8,0.8 -4.4,0.8 -4.1,0 -6.2,-2.2 -6.2,-6.9 0,-4 2.2,-7 5.9,-7 3.7,0 5.2,2.6 5.2,5.5 0,0.3 0,0.7 -0.1,1.1 z m 9.7,-4.6 c -3,-0.5 -4.4,1.8 -4.4,6.3 v 5.4 h -2 v -13.4 h 2 c 0,0.9 -0.1,2.2 -0.3,3.4 0.5,-2 1.9,-4 4.8,-3.7 l -0.1,2 M 124,131 c -1,0 -2,-0.1 -2.8,-0.3 l 0.1,-1.9 c 0.9,0.2 1.9,0.4 3,0.4 1.9,0 3.3,-0.9 3.3,-2.3 0,-3.2 -6.5,-1.2 -6.5,-6 0,-2.2 1.8,-3.9 5.2,-3.9 0.8,0 1.8,0.1 2.6,0.3 l -0.1,1.8 c -0.9,-0.3 -1.9,-0.5 -2.8,-0.5 -2,0 -2.9,0.8 -2.9,2.1 0,3.2 6.6,1.4 6.6,6 -0.1,2.5 -2.2,4.3 -5.7,4.3 m 8.7,-0.2 v -13.4 h 2 v 13.4 h -2 m 1.1,-15.9 c -0.8,0 -1.4,-0.6 -1.4,-1.4 0,-0.8 0.6,-1.4 1.4,-1.4 0.8,0 1.4,0.6 1.4,1.4 0,0.8 -0.7,1.4 -1.4,1.4 z m 9.3,16.1 c -2.7,0 -3.5,-1.2 -3.5,-4 v -8 h -2.9 v -1.6 h 2.9 v -4.5 l 2,-0.6 v 5 h 3.9 v 1.6 h -3.9 v 7.2 c 0,2.4 0.4,3 2,3 0.7,0 1.4,-0.1 1.9,-0.2 v 1.8 c -0.6,0.2 -1.5,0.3 -2.4,0.3 m 9.9,1.2 c -1.6,4.1 -2.8,5.5 -5.7,5.5 -0.5,0 -1.2,-0.1 -1.7,-0.1 l 0.2,-1.9 c 0.5,0.2 1.1,0.3 1.7,0.3 1.6,0 2.4,-0.8 3.5,-3.6 l 0.6,-1.6 -5.1,-13.4 h 2.3 l 2.8,7.7 c 0.4,1.2 0.7,2.2 1,3.2 0.2,-0.9 0.8,-2.5 1.4,-4.1 l 2.4,-6.8 h 2.2 l -5.6,14.8 m 18.1,-13.4 c -2.1,0 -4.1,1.6 -4.1,5.2 0,3.4 1.5,5.3 4.1,5.3 2.1,0 4,-1.6 4,-5.3 0,-3.3 -1.4,-5.2 -4,-5.2 m -0.3,12.2 c -3.6,0 -5.9,-2.2 -5.9,-6.9 0,-3.8 2.4,-7 6.4,-7 3.3,0 6,1.8 6,6.7 -0.1,4.1 -2.6,7.2 -6.5,7.2 z m 17.3,-18.1 c -0.7,-0.2 -1.4,-0.3 -2.1,-0.3 -2.1,0 -3,1.2 -3,3.8 v 1 h 4 v 1.6 h -4 v 11.8 h -2 V 119 h -2.9 v -1.6 h 2.9 v -0.9 c 0,-3.8 1.9,-5.5 5.1,-5.5 0.8,0 1.5,0.1 2.2,0.2 l -0.2,1.7 m 24.4,17.9 -1.6,-11.3 c -0.3,-2.2 -0.5,-3.6 -0.6,-4.6 h -0.1 c -0.2,0.8 -0.5,1.8 -0.9,3.1 l -4.3,12.8 h -2.4 l -4.1,-12 c -0.5,-1.3 -0.9,-2.8 -1.2,-3.9 -0.1,1.5 -0.3,2.9 -0.5,4.8 l -1.3,11 h -2.1 l 2.6,-18.3 h 2.6 l 4.2,12.3 c 0.5,1.3 0.8,2.5 1,3.5 h 0.1 c 0.3,-1.2 0.5,-2.1 1,-3.4 l 4.3,-12.5 h 2.7 l 2.7,18.3 h -2.1 m 12.7,-6.1 c -5.1,0 -6.1,1.6 -6.1,2.9 0,1.2 0.9,2 2.2,2 2.4,0 3.9,-2.4 3.9,-4.7 v -0.2 m 0.1,6.3 c 0,-1 0,-2.1 0.1,-2.8 h -0.1 c -0.6,1.7 -2.4,3.1 -4.7,3.1 -2.1,0 -3.7,-1.1 -3.7,-3.3 0,-2.8 2.9,-4.8 8.2,-4.8 v -1.1 c 0,-2 -0.7,-3.2 -3.1,-3.2 -1.3,0 -2.9,0.4 -4.1,1.2 l -0.2,-1.8 c 1.3,-0.6 2.8,-1 4.7,-1 3.7,0 4.8,1.8 4.8,4.4 v 5.3 c 0,1.3 0,2.8 0.1,4 z m 14.5,0 v -8.7 c 0,-2.1 -0.6,-3.3 -2.5,-3.3 -2.4,0 -4.1,2.4 -4.1,5.6 v 6.5 h -2 v -13.4 h 2 c 0,0.9 -0.1,2.2 -0.2,3 h 0.1 c 0.8,-1.9 2.5,-3.3 4.8,-3.3 3.1,0 4,1.9 4,4.3 v 9.4 h -2.1 m 10.9,0.1 c -3,0 -5.8,-1.3 -5.8,-6.4 0,-4.4 2.2,-7.4 6.6,-7.4 1.1,0 2.2,0.2 3.2,0.5 l -0.2,1.8 c -0.9,-0.4 -1.9,-0.6 -3.1,-0.6 -2.9,0 -4.3,2.1 -4.3,5.4 0,2.8 0.9,5 4.1,5 1.2,0 2.5,-0.3 3.4,-0.8 l 0.2,1.8 c -1,0.3 -2.4,0.7 -4.1,0.7 m 15.5,-0.2 v -8.7 c 0,-2.1 -0.6,-3.3 -2.5,-3.3 -2.4,0 -4.1,2.4 -4.1,5.6 v 6.5 h -2 v -19.7 h 2 v 6.6 c 0,0.9 -0.1,2 -0.2,2.7 h 0.1 c 0.8,-2 2.5,-3.2 4.8,-3.2 3.1,0 4,1.9 4,4.3 v 9.4 h -2.1 m 10.9,-12.3 c -1.9,0 -3.2,1.4 -3.6,3.5 h 6.8 c 0.1,-2.1 -1.1,-3.5 -3.2,-3.5 m 5.3,5 h -9 c -0.1,4 1.5,5.7 4.5,5.7 1.4,0 2.9,-0.4 3.9,-0.9 l 0.2,1.7 c -1.2,0.5 -2.8,0.8 -4.4,0.8 -4.1,0 -6.2,-2.2 -6.2,-6.9 0,-4 2.2,-7 5.9,-7 3.7,0 5.2,2.6 5.2,5.5 0,0.3 0,0.7 -0.1,1.1 z m 5.4,7.3 c -1,0 -2,-0.1 -2.8,-0.3 l 0.1,-1.9 c 0.9,0.2 1.9,0.4 3,0.4 1.9,0 3.3,-0.9 3.3,-2.3 0,-3.2 -6.5,-1.2 -6.5,-6 0,-2.2 1.8,-3.9 5.2,-3.9 0.8,0 1.8,0.1 2.6,0.3 l -0.1,1.8 c -0.9,-0.3 -1.9,-0.5 -2.8,-0.5 -2,0 -2.9,0.8 -2.9,2.1 0,3.2 6.6,1.4 6.6,6 -0.1,2.5 -2.2,4.3 -5.7,4.3 m 13,0 c -2.7,0 -3.5,-1.2 -3.5,-4 v -8 h -2.9 v -1.6 h 2.9 v -4.5 l 2,-0.6 v 5 h 3.9 v 1.6 h -3.9 v 7.2 c 0,2.4 0.4,3 2,3 0.7,0 1.4,-0.1 1.9,-0.2 v 1.8 c -0.6,0.2 -1.6,0.3 -2.4,0.3 m 10,-12.3 c -1.9,0 -3.2,1.4 -3.6,3.5 h 6.8 c 0.1,-2.1 -1.2,-3.5 -3.2,-3.5 m 5.3,5 h -9 c -0.1,4 1.5,5.7 4.5,5.7 1.4,0 2.9,-0.4 3.9,-0.9 l 0.2,1.7 c -1.2,0.5 -2.8,0.8 -4.4,0.8 -4.1,0 -6.2,-2.2 -6.2,-6.9 0,-4 2.2,-7 5.9,-7 3.7,0 5.2,2.6 5.2,5.5 -0.1,0.3 -0.1,0.7 -0.1,1.1 z m 9.5,-4.6 c -3,-0.5 -4.4,1.8 -4.4,6.3 v 5.4 h -2 v -13.4 h 2 c 0,0.9 -0.1,2.2 -0.3,3.4 0.5,-2 1.9,-4 4.8,-3.7 l -0.1,2"
         id="path4" /></g></g></svg>
